name rise49.8558peak67.6521fall70.3087.mot
datacolumns 19
datarows 35
range 10.33329000000000 10.38995800000000
endheader
time	ground_force1_vx	ground_force1_vy	ground_force1_vz	ground_force1_px	ground_force1_py	ground_force1_pz	ground_force2_vx	ground_force2_vy	ground_force2_vz	ground_force2_px	ground_force2_py	ground_force2_pz	ground_torque1_x	ground_torque1_y	ground_torque1_z	ground_torque2_x	ground_torque2_y	ground_torque2_z	
10.33329000000000	-5.46178800000000	41.59203500000000	-8.36990700000000	0.37057200000000	0.00000000000000	0.10109600000000	-55.28276600000000	817.02484000000004	-61.92535600000000	0.19753700000000	0.00000000000000	-0.09320200000000	0.00000000000000	-7.14145400000000	0.00000000000000	0.00000000000000	-32.91460900000000	0.00000000000000	
10.33495900000000	-6.05342000000000	48.59236600000000	-9.49753300000000	0.37691200000000	0.00000000000000	0.10160400000000	-55.69246000000000	815.39861299999995	-61.76326800000000	0.19652900000000	0.00000000000000	-0.09319700000000	0.00000000000000	-8.16926000000000	0.00000000000000	0.00000000000000	-32.79009100000000	0.00000000000000	
10.33662600000000	-6.55669900000000	55.63521900000000	-10.55162700000000	0.38270600000000	0.00000000000000	0.10207200000000	-56.09726200000000	813.64166799999998	-61.57899500000000	0.19552800000000	0.00000000000000	-0.09318900000000	0.00000000000000	-9.14555500000000	0.00000000000000	0.00000000000000	-32.65817900000000	0.00000000000000	
10.33831000000000	-6.95597900000000	62.62460700000000	-11.50958600000000	0.38804000000000	0.00000000000000	0.10250400000000	-56.49738200000000	811.75318000000004	-61.37237200000000	0.19453500000000	0.00000000000000	-0.09317600000000	0.00000000000000	-10.04947000000000	0.00000000000000	0.00000000000000	-32.51900100000000	0.00000000000000	
10.33995900000000	-7.24109200000000	69.48831300000001	-12.35553100000000	0.39298100000000	0.00000000000000	0.10290700000000	-56.89302800000000	809.73240099999998	-61.14325900000000	0.19355000000000	0.00000000000000	-0.09315900000000	0.00000000000000	-10.86589400000000	0.00000000000000	0.00000000000000	-32.37269200000000	0.00000000000000	
10.34162600000000	-7.40736000000000	76.17998299999999	-13.08051800000000	0.39758500000000	0.00000000000000	0.10328500000000	-57.28440000000000	807.57865500000003	-60.89153500000000	0.19257400000000	0.00000000000000	-0.09313800000000	0.00000000000000	-11.58578600000000	0.00000000000000	0.00000000000000	-32.21939400000000	0.00000000000000	
10.34330300000000	-7.45515400000000	82.67873200000000	-13.68214100000000	0.40189900000000	0.00000000000000	0.10364100000000	-57.67169300000000	805.29134299999998	-60.61710700000000	0.19160900000000	0.00000000000000	-0.09311300000000	0.00000000000000	-12.20593100000000	0.00000000000000	0.00000000000000	-32.05925700000000	0.00000000000000	
10.34496400000000	-7.38912300000000	88.98673599999999	-14.16367600000000	0.40595900000000	0.00000000000000	0.10397800000000	-58.05509200000000	802.86993199999995	-60.31990200000000	0.19065300000000	0.00000000000000	-0.09308300000000	0.00000000000000	-12.72826000000000	0.00000000000000	0.00000000000000	-31.89243400000000	0.00000000000000	
10.34662800000000	-7.21720500000000	95.12533500000001	-14.53290800000000	0.40979900000000	0.00000000000000	0.10429900000000	-58.43476800000000	800.31395899999995	-59.99987400000000	0.18971000000000	0.00000000000000	-0.09304800000000	0.00000000000000	-13.15886700000000	0.00000000000000	0.00000000000000	-31.71908800000000	0.00000000000000	
10.34830300000000	-6.94954900000000	101.13024100000000	-14.80078500000000	0.41344300000000	0.00000000000000	0.10460500000000	-58.81088300000000	797.62302699999998	-59.65700200000000	0.18877800000000	0.00000000000000	-0.09300900000000	0.00000000000000	-13.50684300000000	0.00000000000000	0.00000000000000	-31.53938300000000	0.00000000000000	
10.34995800000000	-6.59744300000000	107.04640800000000	-14.98006800000000	0.41691500000000	0.00000000000000	0.10489800000000	-59.18358000000000	794.79680099999996	-59.29129000000000	0.18785900000000	0.00000000000000	-0.09296500000000	0.00000000000000	-13.78307200000000	0.00000000000000	0.00000000000000	-31.35348900000000	0.00000000000000	
10.35163100000000	-6.17234200000000	112.92302200000000	-15.08404800000000	0.42023300000000	0.00000000000000	0.10518100000000	-59.55298500000000	791.83500800000002	-58.90276700000000	0.18695500000000	0.00000000000000	-0.09291600000000	0.00000000000000	-13.99908800000000	0.00000000000000	0.00000000000000	-31.16158200000000	0.00000000000000	
10.35330700000000	-5.68504900000000	118.80901500000000	-15.12546200000000	0.42341500000000	0.00000000000000	0.10545300000000	-59.91920700000000	788.73743700000000	-58.49149100000000	0.18606400000000	0.00000000000000	-0.09286200000000	0.00000000000000	-14.16606800000000	0.00000000000000	0.00000000000000	-30.96383600000000	0.00000000000000	
10.35495700000000	-5.14509600000000	124.74934200000000	-15.11562800000000	0.42647300000000	0.00000000000000	0.10571600000000	-60.28232900000000	785.50393199999996	-58.05754500000000	0.18519000000000	0.00000000000000	-0.09280300000000	0.00000000000000	-14.29402800000000	0.00000000000000	0.00000000000000	-30.76043300000000	0.00000000000000	
10.35662600000000	-4.56033000000000	130.78219899999999	-15.06384800000000	0.42941900000000	0.00000000000000	0.10597100000000	-60.64241300000000	782.13439500000004	-57.60104200000000	0.18433100000000	0.00000000000000	-0.09273900000000	0.00000000000000	-14.39125100000000	0.00000000000000	0.00000000000000	-30.55155400000000	0.00000000000000	
10.35830100000000	-3.93670300000000	136.93720300000001	-14.97706300000000	0.43226400000000	0.00000000000000	0.10622000000000	-60.99949500000000	778.62878300000000	-57.12212100000000	0.18348900000000	0.00000000000000	-0.09266900000000	0.00000000000000	-14.46393800000000	0.00000000000000	0.00000000000000	-30.33738200000000	0.00000000000000	
10.35996400000000	-3.27824800000000	143.23451800000001	-14.85975400000000	0.43501700000000	0.00000000000000	0.10646100000000	-61.35358000000000	774.98710700000004	-56.62095100000000	0.18266500000000	0.00000000000000	-0.09259400000000	0.00000000000000	-14.51608400000000	0.00000000000000	0.00000000000000	-30.11810000000000	0.00000000000000	
10.36162600000000	-2.58720300000000	149.68482000000000	-14.71404400000000	0.43768500000000	0.00000000000000	0.10669700000000	-61.70464700000000	771.20942900000000	-56.09773100000000	0.18186000000000	0.00000000000000	-0.09251400000000	0.00000000000000	-14.54954100000000	0.00000000000000	0.00000000000000	-29.89389000000000	0.00000000000000	
10.36330100000000	-1.86425500000000	156.28993700000001	-14.53996300000000	0.44027500000000	0.00000000000000	0.10692800000000	-62.05264100000000	767.29586600000005	-55.55268800000000	0.18107400000000	0.00000000000000	-0.09242800000000	0.00000000000000	-14.56423100000000	0.00000000000000	0.00000000000000	-29.66493600000000	0.00000000000000	
10.36496000000000	-1.10885400000000	163.04401300000001	-14.33581900000000	0.44279200000000	0.00000000000000	0.10715300000000	-62.39747200000000	763.24658199999999	-54.98608100000000	0.18030800000000	0.00000000000000	-0.09233600000000	0.00000000000000	-14.55846800000000	0.00000000000000	0.00000000000000	-29.43141800000000	0.00000000000000	
10.36662700000000	-0.31957000000000	169.93498900000000	-14.09863700000000	0.44524100000000	0.00000000000000	0.10737400000000	-62.73901600000000	759.06179599999996	-54.39819700000000	0.17956300000000	0.00000000000000	-0.09223900000000	0.00000000000000	-14.52934500000000	0.00000000000000	0.00000000000000	-29.19351400000000	0.00000000000000	
10.36830000000000	0.50554700000000	176.94625800000000	-13.82461500000000	0.44762700000000	0.00000000000000	0.10759100000000	-63.07711100000000	754.74177599999996	-53.78935600000000	0.17884000000000	0.00000000000000	-0.09213600000000	0.00000000000000	-14.47314200000000	0.00000000000000	0.00000000000000	-28.95140000000000	0.00000000000000	
10.36995900000000	1.36863000000000	184.05831200000000	-13.50956200000000	0.44995400000000	0.00000000000000	0.10780400000000	-63.41155400000000	750.28683899999999	-53.15990800000000	0.17813900000000	0.00000000000000	-0.09202700000000	0.00000000000000	-14.38573000000000	0.00000000000000	0.00000000000000	-28.70524600000000	0.00000000000000	
10.37162700000000	2.27170200000000	191.25029200000000	-13.14928900000000	0.45222300000000	0.00000000000000	0.10801400000000	-63.74210300000000	745.69735700000001	-52.51023400000000	0.17746100000000	0.00000000000000	-0.09191300000000	0.00000000000000	-14.26292600000000	0.00000000000000	0.00000000000000	-28.45521900000000	0.00000000000000	
10.37330100000000	3.21644200000000	198.50131600000000	-12.73993800000000	0.45443800000000	0.00000000000000	0.10822000000000	-64.06847399999999	740.97374900000000	-51.84074600000000	0.17680600000000	0.00000000000000	-0.09179200000000	0.00000000000000	-14.10080600000000	0.00000000000000	0.00000000000000	-28.20148000000000	0.00000000000000	
10.37495900000000	4.20400600000000	205.79155700000001	-12.27822500000000	0.45660100000000	0.00000000000000	0.10842400000000	-64.39033900000000	736.11648800000000	-51.15188700000000	0.17617600000000	0.00000000000000	-0.09166600000000	0.00000000000000	-13.89593400000000	0.00000000000000	0.00000000000000	-27.94418600000000	0.00000000000000	
10.37662900000000	5.23492700000000	213.10302700000000	-11.76161300000000	0.45871300000000	0.00000000000000	0.10862400000000	-64.70732400000000	731.12609799999996	-50.44413100000000	0.17557000000000	0.00000000000000	-0.09153300000000	0.00000000000000	-13.64553000000000	0.00000000000000	0.00000000000000	-27.68348500000000	0.00000000000000	
10.37829200000000	6.30906100000000	220.42006799999999	-11.18840100000000	0.46077700000000	0.00000000000000	0.10882100000000	-65.01901100000001	726.00315699999999	-49.71798100000000	0.17499000000000	0.00000000000000	-0.09139400000000	0.00000000000000	-13.34756100000000	0.00000000000000	0.00000000000000	-27.41951800000000	0.00000000000000	
10.37996300000000	7.42559400000000	227.72958499999999	-10.55774600000000	0.46279300000000	0.00000000000000	0.10901600000000	-65.32493599999999	720.74829599999998	-48.97397400000000	0.17443500000000	0.00000000000000	-0.09125000000000	0.00000000000000	-13.00077500000000	0.00000000000000	0.00000000000000	-27.15242100000000	0.00000000000000	
10.38162800000000	8.58308700000000	235.02104000000000	-9.86963000000000	0.46476200000000	0.00000000000000	0.10920800000000	-65.62458800000000	715.36220000000003	-48.21267400000000	0.17390700000000	0.00000000000000	-0.09109900000000	0.00000000000000	-12.60467100000000	0.00000000000000	0.00000000000000	-26.88232000000000	0.00000000000000	
10.38330300000000	9.77955500000000	242.28627399999999	-9.12478300000000	0.46668400000000	0.00000000000000	0.10939800000000	-65.91741000000000	709.84561099999996	-47.43467500000000	0.17340600000000	0.00000000000000	-0.09094200000000	0.00000000000000	-12.15943800000000	0.00000000000000	0.00000000000000	-26.60933300000000	0.00000000000000	
10.38496500000000	11.01255900000000	249.51918599999999	-8.32457500000000	0.46856000000000	0.00000000000000	0.10958500000000	-66.20279700000000	704.19932800000004	-46.64060000000000	0.17293100000000	0.00000000000000	-0.09077800000000	0.00000000000000	-11.66586700000000	0.00000000000000	0.00000000000000	-26.33356900000000	0.00000000000000	
10.38662800000000	12.27931300000000	256.71534800000001	-7.47089900000000	0.47039100000000	0.00000000000000	0.10977000000000	-66.48009999999999	698.42420900000002	-45.83110000000000	0.17248400000000	0.00000000000000	-0.09060900000000	0.00000000000000	-11.12523600000000	0.00000000000000	0.00000000000000	-26.05512900000000	0.00000000000000	
10.38830500000000	13.57679100000000	263.87157300000001	-6.56604500000000	0.47217500000000	0.00000000000000	0.10995200000000	-66.74862400000001	692.52117199999998	-45.00685400000000	0.17206500000000	0.00000000000000	-0.09043400000000	0.00000000000000	-10.53920300000000	0.00000000000000	0.00000000000000	-25.77410500000000	0.00000000000000	
10.38995800000000	14.90181700000000	270.98550499999999	-5.61258300000000	0.47391300000000	0.00000000000000	0.11013200000000	-67.00762700000000	686.49119800000005	-44.16856600000000	0.17167300000000	0.00000000000000	-0.09025200000000	0.00000000000000	-9.90969700000000	0.00000000000000	0.00000000000000	-25.49057900000000	0.00000000000000	
